<?xml version="1.0" encoding="utf-8"?>
<!-- Generator: Adobe Illustrator 24.2.1, SVG Export Plug-In . SVG Version: 6.00 Build 0)  -->
<svg version="1.1" id="Layer_1" xmlns="http://www.w3.org/2000/svg" xmlns:xlink="http://www.w3.org/1999/xlink" x="0px" y="0px"
	 viewBox="0 0 190 42" style="enable-background:new 0 0 190 42;" xml:space="preserve">
<style type="text/css">
	.st0{fill:#AAAAAA;}
	.st1{fill:#FB4F14;}
	.st2{font-family:'HelveticaNeue';}
	.st3{font-size:1.16px;}
	.st4{fill:#04AADA;}
	.st5{fill:#40535D;}
</style>
<g>
	<g>
		<g>
			<path class="st0" d="M141.08,33.58h0.76v2.6c0.39-0.54,0.98-0.86,1.65-0.86c1.27,0,2.17,1.01,2.17,2.57
				c0,1.59-0.9,2.56-2.17,2.56c-0.69,0-1.28-0.35-1.65-0.85v0.73h-0.76V33.58z M143.29,39.76c0.99,0,1.58-0.8,1.58-1.88
				s-0.59-1.89-1.58-1.89c-0.6,0-1.19,0.36-1.45,0.79v2.21C142.1,39.42,142.7,39.76,143.29,39.76z"/>
			<path class="st0" d="M147.15,41.62c0.33,0,0.56-0.11,0.73-0.52l0.32-0.74l-2.04-4.93h0.82l1.63,4l1.62-4h0.83l-2.44,5.87
				c-0.29,0.71-0.79,0.98-1.43,0.99c-0.16,0-0.41-0.03-0.56-0.07l0.12-0.69C146.85,41.59,147.03,41.62,147.15,41.62z"/>
		</g>
		<g>
			<text transform="matrix(1 0 0 1 189.0735 32.4068)" class="st1 st2 st3">®</text>
			<path class="st1" d="M162.08,40.06c0.1,0.08,0.25,0.08,0.35,0c0.08-0.06,0.18-0.15,0.29-0.26c0.12-0.11,0.22-0.22,0.3-0.3
				c0.11-0.12,0.09-0.32-0.04-0.41l-0.77-0.56c0,0-0.14,0.19-0.43,0.46s-0.52,0.45-0.52,0.45L162.08,40.06z"/>
			<path class="st1" d="M170.45,37.52c0,1.96-1.4,2.88-2.99,2.88c-1.59,0-2.99-0.92-2.99-2.88v-3.7c0-0.15,0.12-0.27,0.27-0.27h0.76
				v3.88c0,1.36,0.83,2,1.95,2c1.13,0,1.95-0.64,1.95-2v-3.88h0.78c0.15,0,0.27,0.12,0.27,0.27L170.45,37.52L170.45,37.52z"/>
			<path class="st1" d="M177.89,36.94v0.11c0,0.16-0.14,0.28-0.29,0.28h-5c0.15,1.42,1.14,2.15,2.33,2.15
				c0.72,0,1.36-0.25,1.89-0.66c0.11-0.09,0.27-0.06,0.36,0.05l0.39,0.5c-0.82,0.79-1.74,1.03-2.7,1.03c-1.95,0-3.33-1.38-3.33-3.42
				c0-2.02,1.39-3.42,3.27-3.42C176.59,33.55,177.88,34.94,177.89,36.94 M172.61,36.49h4.23c-0.13-1.23-0.94-2.02-2.06-2.02
				C173.56,34.46,172.78,35.3,172.61,36.49"/>
			<path class="st1" d="M183.82,34.82c-0.07,0.13-0.24,0.18-0.37,0.11c-0.46-0.25-1.18-0.48-1.93-0.48c-0.94,0-1.56,0.4-1.56,1.04
				c0,0.55,0.48,0.82,1.34,0.93l0.78,0.1c1.4,0.18,2.21,0.76,2.21,1.84c0,1.25-1.13,2.04-2.9,2.04c-0.85,0-1.91-0.21-2.75-0.84
				l0.31-0.51c0.09-0.14,0.28-0.19,0.41-0.1c0.47,0.31,1.09,0.54,2.03,0.54c1.11,0,1.81-0.37,1.81-1.06c0-0.53-0.44-0.85-1.38-0.96
				l-0.79-0.09c-1.48-0.18-2.18-0.84-2.18-1.82c0-1.24,1.05-2,2.63-2c0.92,0,1.76,0.23,2.38,0.57c0.13,0.07,0.18,0.24,0.11,0.37
				L183.82,34.82z"/>
			<path class="st1" d="M189.62,39.19c-0.08-0.13-0.25-0.17-0.38-0.09c-0.34,0.19-0.74,0.32-1.15,0.32c-0.76,0-1.31-0.45-1.31-1.48
				v-3.45h1.76c0.15,0,0.27-0.12,0.27-0.27v-0.67h-2.02v-1.69c0-0.15-0.12-0.28-0.28-0.28h-0.76v1.97h-0.41
				c-0.17,0-0.31,0.14-0.31,0.31v0.63h0.72v3.47c0,1.65,0.84,2.43,2.26,2.43c0.81,0,1.46-0.28,1.95-0.65L189.62,39.19z"/>
			<path class="st1" d="M163.28,35.28c-0.1-2.72-2.39-4.84-5.11-4.74c-0.15,0.01-0.3,0.02-0.45,0.04c-2.5,0.32-4.39,2.51-4.3,5.07
				c0.1,2.72,2.39,4.84,5.11,4.74c0.99-0.04,1.93-0.37,2.73-0.96l-0.75-0.55c-0.08-0.06-0.19-0.07-0.28-0.02
				c-0.58,0.33-1.25,0.51-1.97,0.49c-1.99-0.05-3.63-1.65-3.72-3.64c-0.11-2.31,1.84-4.19,4.16-3.98c1.86,0.16,3.34,1.67,3.47,3.53
				c0.06,0.9-0.19,1.74-0.65,2.42c-0.08,0.12-0.06,0.29,0.06,0.37l0.64,0.47C162.94,37.6,163.32,36.46,163.28,35.28"/>
		</g>
	</g>
	<g>
		<g>
			<g>
				<path class="st4" d="M29.61,8.07c0-0.27,0.24-0.48,0.5-0.48h0.4c0.27,0,0.45,0.19,0.66,0.4l10.19,9.79h0.03V8.36
					c0-0.27,0.21-0.5,0.5-0.5h3.18c0.27,0,0.5,0.24,0.5,0.5v17.85c0,0.32-0.24,0.48-0.5,0.48H44.8c-0.27,0-0.45-0.08-0.66-0.29
					L33.83,16.02H33.8v9.89c0,0.27-0.21,0.5-0.5,0.5h-3.16c-0.27,0-0.5-0.24-0.5-0.5L29.61,8.07"/>
				<path class="st4" d="M48.79,8.36c0-0.27,0.21-0.5,0.5-0.5h10.99c0.29,0,0.5,0.24,0.5,0.5v2.89c0,0.27-0.21,0.5-0.5,0.5h-7.35
					v3.29h6.05c0.27,0,0.5,0.24,0.5,0.5v2.89c0,0.29-0.24,0.5-0.5,0.5h-6.05v3.58h7.35c0.29,0,0.5,0.24,0.5,0.5v2.89
					c0,0.27-0.21,0.5-0.5,0.5H49.3c-0.29,0-0.5-0.24-0.5-0.5L48.79,8.36"/>
				<path class="st5" d="M73.99,8.29c0-0.27,0.24-0.5,0.5-0.5h3.18c0.27,0,0.5,0.24,0.5,0.5v17.56c0,0.27-0.24,0.5-0.5,0.5h-3.18
					c-0.27,0-0.5-0.24-0.5-0.5V8.29"/>
				<path class="st5" d="M81.56,8.29c0-0.27,0.21-0.5,0.48-0.5h6.47c5.12,0,9.31,4.16,9.31,9.26c0,5.15-4.19,9.31-9.31,9.31h-6.47
					c-0.27,0-0.48-0.24-0.48-0.5V8.29 M88.48,22.43c3,0,4.93-2.36,4.93-5.38c0-3-1.94-5.36-4.93-5.36h-2.79v10.74H88.48z"/>
				<path class="st5" d="M100.65,8.29c0-0.27,0.21-0.5,0.5-0.5h10.98c0.29,0,0.5,0.24,0.5,0.5v2.89c0,0.27-0.21,0.5-0.5,0.5h-7.35
					v3.29h6.05c0.27,0,0.5,0.24,0.5,0.5v2.89c0,0.29-0.24,0.5-0.5,0.5h-6.05v3.58h7.35c0.29,0,0.5,0.24,0.5,0.5v2.89
					c0,0.27-0.21,0.5-0.5,0.5h-10.98c-0.29,0-0.5-0.24-0.5-0.5V8.29"/>
				<path class="st5" d="M115.47,8c0-0.27,0.24-0.48,0.5-0.48h0.4c0.27,0,0.45,0.19,0.66,0.4l10.19,9.79h0.03V8.29
					c0-0.27,0.21-0.5,0.5-0.5h3.18c0.26,0,0.5,0.24,0.5,0.5v17.85c0,0.32-0.24,0.48-0.5,0.48h-0.27c-0.27,0-0.45-0.08-0.66-0.29
					l-10.32-10.37h-0.03v9.89c0,0.27-0.21,0.5-0.5,0.5h-3.16c-0.27,0-0.5-0.24-0.5-0.5L115.47,8"/>
				<path class="st5" d="M139.19,11.69h-3.79c-0.29,0-0.51-0.24-0.51-0.5v-2.9c0-0.27,0.21-0.5,0.51-0.5h11.78
					c0.29,0,0.51,0.24,0.51,0.5v2.89c0,0.27-0.21,0.5-0.51,0.5h-3.79v14.17c0,0.27-0.24,0.5-0.5,0.5h-3.18c-0.27,0-0.5-0.24-0.5-0.5
					V11.69"/>
				<path class="st5" d="M151.13,8.29c0-0.27,0.24-0.5,0.51-0.5h3.18c0.27,0,0.51,0.24,0.51,0.5v17.56c0,0.27-0.24,0.5-0.51,0.5
					h-3.18c-0.27,0-0.51-0.24-0.51-0.5V8.29"/>
				<path class="st5" d="M162.9,11.69h-3.79c-0.29,0-0.51-0.24-0.51-0.5v-2.9c0-0.27,0.21-0.5,0.51-0.5h11.78
					c0.29,0,0.5,0.24,0.5,0.5v2.89c0,0.27-0.21,0.5-0.5,0.5h-3.79v14.17c0,0.27-0.24,0.5-0.51,0.5h-3.18c-0.27,0-0.51-0.24-0.51-0.5
					L162.9,11.69"/>
				<path class="st5" d="M179.63,17.45l-5.86-8.86c-0.21-0.34,0-0.77,0.43-0.77h3.45c0.21,0,0.35,0.13,0.42,0.24l3.69,5.44
					l3.69-5.44c0.08-0.11,0.18-0.24,0.42-0.24h3.45c0.43,0,0.64,0.42,0.43,0.77l-5.94,8.83v8.46c0,0.27-0.24,0.5-0.5,0.5h-3.16
					c-0.29,0-0.51-0.24-0.51-0.5L179.63,17.45"/>
			</g>
		</g>
		<g>
			<g>
				<path class="st4" d="M24.12,29.42c-4.59,2.7-10.28,2.74-14.91,0.11S1.7,22,1.66,16.67L0,16.68c0.04,5.92,3.24,11.36,8.39,14.29
					c5.15,2.92,11.46,2.88,16.57-0.12L24.12,29.42z"/>
				<path class="st4" d="M9.02,3.71L9.02,3.71c4.59-2.7,10.28-2.74,14.91-0.11l0.82-1.44C19.6-0.76,13.28-0.72,8.18,2.28l0,0
					c-5.1,3-8.22,8.49-8.18,14.41l1.66-0.01C1.62,11.35,4.42,6.41,9.02,3.71z"/>
			</g>
			<path class="st4" d="M16.57,3.31c4.73,0,9.11,2.53,11.48,6.63l-1.43,0.83c-2.07-3.59-5.9-5.8-10.04-5.8L16.57,3.31"/>
			<g>
				<path class="st4" d="M28.04,23.19l-1.43-0.83c-2.07,3.59-5.9,5.8-10.04,5.8s-7.97-2.21-10.04-5.8L5.1,23.19
					c2.37,4.1,6.74,6.63,11.48,6.63l0,0l0,0l0,0l0,0C21.3,29.82,25.68,27.29,28.04,23.19z"/>
				<path class="st4" d="M6.52,10.77L5.09,9.94c-2.37,4.1-2.37,9.15,0,13.25l1.43-0.83C4.45,18.78,4.45,14.36,6.52,10.77z"/>
			</g>
			<path class="st4" d="M16.57,6.63c3.55,0,6.83,1.89,8.61,4.97s1.78,6.86,0,9.94s-5.06,4.97-8.61,4.97s-6.83-1.89-8.61-4.97
				s-1.78-6.86,0-9.94C9.73,8.52,13.02,6.63,16.57,6.63 M11.55,13.67c-1.04,1.79-1.04,4,0,5.8c1.04,1.79,2.95,2.9,5.02,2.9
				s3.99-1.11,5.02-2.9c1.04-1.79,1.04-4,0-5.8c-1.04-1.79-2.95-2.9-5.02-2.9C14.49,10.77,12.58,11.87,11.55,13.67z"/>
		</g>
	</g>
</g>
</svg>
